<?xml version="1.0" encoding="UTF-8" standalone="no"?>
<!-- Generator: Adobe Illustrator 19.0.0, SVG Export Plug-In . SVG Version: 6.00 Build 0)  -->

<svg
   xmlns:dc="http://purl.org/dc/elements/1.1/"
   xmlns:cc="http://creativecommons.org/ns#"
   xmlns:rdf="http://www.w3.org/1999/02/22-rdf-syntax-ns#"
   xmlns:svg="http://www.w3.org/2000/svg"
   xmlns="http://www.w3.org/2000/svg"
   xmlns:sodipodi="http://sodipodi.sourceforge.net/DTD/sodipodi-0.dtd"
   xmlns:inkscape="http://www.inkscape.org/namespaces/inkscape"
   version="1.1"
   id="Layer_1"
   x="0px"
   y="0px"
   viewBox="0 0 259.3 153.5"
   style="enable-background:new 0 0 259.3 153.5;"
   xml:space="preserve"
   sodipodi:docname="mapa-san-matias.svg"
   inkscape:version="0.92.2 (5c3e80d, 2017-08-06)"><metadata
     id="metadata140"><rdf:RDF><cc:Work
         rdf:about=""><dc:format>image/svg+xml</dc:format><dc:type
           rdf:resource="http://purl.org/dc/dcmitype/StillImage" /><dc:title></dc:title></cc:Work></rdf:RDF></metadata><defs
     id="defs138" /><sodipodi:namedview
     pagecolor="#ffffff"
     bordercolor="#666666"
     borderopacity="1"
     objecttolerance="10"
     gridtolerance="10"
     guidetolerance="10"
     inkscape:pageopacity="0"
     inkscape:pageshadow="2"
     inkscape:window-width="1920"
     inkscape:window-height="1001"
     id="namedview136"
     showgrid="false"
     inkscape:pagecheckerboard="true"
     inkscape:zoom="5.2638436"
     inkscape:cx="111.97822"
     inkscape:cy="16.123024"
     inkscape:window-x="2391"
     inkscape:window-y="-9"
     inkscape:window-maximized="1"
     inkscape:current-layer="Layer_1" /><style
     type="text/css"
     id="style76">
	.st0{fill:#FFFFFF;}
</style><g
     id="g3943"
     style="fill:#4d4d4d"><path
       style="fill:#4d4d4d"
       inkscape:connector-curvature="0"
       id="path78"
       d="m 80.5,128.7 3.2,-1.8 c 0.8,1.4 1.9,2.4 3.9,2.4 1.6,0 2.7,-0.8 2.7,-1.9 0,-1.3 -1.1,-1.8 -2.9,-2.6 l -1,-0.4 c -2.8,-1.2 -4.7,-2.7 -4.7,-5.9 0,-2.9 2.2,-5.2 5.7,-5.2 2.5,0 4.3,0.9 5.6,3.1 l -3.1,2 c -0.7,-1.2 -1.4,-1.7 -2.5,-1.7 -1.1,0 -1.9,0.7 -1.9,1.7 0,1.2 0.7,1.7 2.4,2.4 l 1,0.4 c 3.3,1.4 5.2,2.9 5.2,6.2 0,3.5 -2.8,5.5 -6.5,5.5 -3.6,-0.2 -5.9,-1.9 -7.1,-4.2 z"
       class="st0" /><path
       style="fill:#4d4d4d"
       inkscape:connector-curvature="0"
       id="path80"
       d="m 105.3,113.2 h 0.3 l 8.7,19.2 h -4.1 l -0.9,-2.2 h -7.7 l -0.9,2.2 H 97 Z m 2.7,13.8 -1.4,-3.3 c -0.6,-1.3 -1.1,-3.4 -1.1,-3.4 0,0 -0.6,2.1 -1.1,3.4 L 103,127 Z"
       class="st0" /><path
       style="fill:#4d4d4d"
       inkscape:connector-curvature="0"
       id="path82"
       d="m 124.3,123.6 c -1,-0.9 -2.3,-2.6 -2.3,-2.6 0,0 0.3,2.1 0.3,3.5 v 8 h -3.7 v -19.2 h 0.4 l 9.6,9 c 0.9,0.9 2.2,2.6 2.2,2.6 0,0 -0.3,-2.2 -0.3,-3.5 v -8 h 3.7 v 19.2 h -0.4 z"
       class="st0" /><path
       style="fill:#4d4d4d"
       inkscape:connector-curvature="0"
       id="path84"
       d="m 147.9,113.2 h 0.3 l 9.4,10.3 9.2,-10.3 h 0.3 v 19.3 h -3.8 v -7.1 c 0,-1.3 0.1,-3.3 0.1,-3.3 0,0 -1.1,1.7 -2,2.7 l -3.8,4.2 h -0.4 l -3.8,-4.2 c -0.9,-1 -2,-2.7 -2,-2.7 0,0 0.1,2 0.1,3.3 v 7.1 h -3.8 v -19.3 z"
       class="st0" /><path
       style="fill:#4d4d4d"
       inkscape:connector-curvature="0"
       id="path86"
       d="m 179.8,113.2 h 0.3 l 8.7,19.2 h -4.1 l -0.9,-2.2 h -7.7 l -0.9,2.2 h -3.8 z m 2.6,13.8 -1.4,-3.3 c -0.6,-1.3 -1.1,-3.4 -1.1,-3.4 0,0 -0.6,2.1 -1.1,3.4 l -1.4,3.3 z"
       class="st0" /><path
       style="fill:#4d4d4d"
       inkscape:connector-curvature="0"
       id="path88"
       d="m 194.8,116.8 h -5.4 v -3.4 h 14.8 v 3.4 h -5.4 v 15.6 h -3.9 v -15.6 z"
       class="st0" /><path
       style="fill:#4d4d4d"
       inkscape:connector-curvature="0"
       id="path90"
       d="m 208.8,113.4 h 3.9 v 19.1 h -3.9 z"
       class="st0" /><path
       style="fill:#4d4d4d"
       inkscape:connector-curvature="0"
       id="path92"
       d="m 225.4,113.2 h 0.3 l 8.7,19.2 h -4.1 l -0.9,-2.2 h -7.7 l -0.9,2.2 H 217 Z m 2.6,13.8 -1.4,-3.3 c -0.6,-1.3 -1.1,-3.4 -1.1,-3.4 0,0 -0.6,2.1 -1.1,3.4 L 223,127 Z"
       class="st0" /><path
       style="fill:#4d4d4d"
       inkscape:connector-curvature="0"
       id="path94"
       d="m 236.9,128.7 3.2,-1.8 c 0.8,1.4 1.9,2.4 3.9,2.4 1.6,0 2.7,-0.8 2.7,-1.9 0,-1.3 -1.1,-1.8 -2.9,-2.6 l -1,-0.4 c -2.8,-1.2 -4.7,-2.7 -4.7,-5.9 0,-2.9 2.2,-5.2 5.7,-5.2 2.5,0 4.3,0.9 5.6,3.1 l -3.1,2 c -0.7,-1.2 -1.4,-1.7 -2.5,-1.7 -1.1,0 -1.9,0.7 -1.9,1.7 0,1.2 0.7,1.7 2.4,2.4 l 1,0.4 c 3.3,1.4 5.2,2.9 5.2,6.2 0,3.5 -2.8,5.5 -6.5,5.5 -3.6,-0.2 -5.9,-1.9 -7.1,-4.2 z"
       class="st0" /><g
       id="g131"
       style="fill:#4d4d4d"><g
         id="g129"
         style="fill:#4d4d4d"><g
           id="g127"
           style="fill:#4d4d4d"><path
             id="XMLID_81_"
             class="st0"
             d="m 122.8,55.1 c -0.1,0 -2.3,-0.3 -5.9,-0.3 -6.4,0 -16.4,0.9 -26.9,5.3 0.4,-3.2 3.5,-16.9 26.2,-19.2 0.2,0 0.4,-0.2 0.4,-0.4 0,-0.2 -0.2,-0.4 -0.4,-0.4 0,0 -0.8,-0.1 -2.1,-0.1 -5.8,0 -24.8,1.6 -28.7,22.2 C 77.9,66.1 70.5,72.1 64.3,81 63.5,78.5 62.6,73.7 62.9,67.9 82.3,62.5 83.5,46.2 83.5,46 c 0,-0.2 -0.1,-0.4 -0.3,-0.4 -0.2,0 -0.4,0.1 -0.5,0.2 C 77.1,60.6 65.9,62.8 63.4,63.1 65.2,52.7 71,40.2 86.6,31 c 0.2,-0.1 0.2,-0.3 0.2,-0.5 -0.1,-0.2 -0.3,-0.3 -0.5,-0.2 -0.1,0 -8.9,3.3 -16.4,11.8 -6.9,7.8 -14,21.8 -8.9,44 -3.3,5.9 -6,12.8 -8.1,20.9 -0.4,-0.6 -0.8,-1.2 -1.2,-1.7 C 53.2,81.1 37.2,78 37,78 c -0.2,0 -0.4,0.1 -0.4,0.3 -0.1,0.2 0,0.4 0.2,0.5 10.9,4.8 11.5,17 11.6,22.6 -3.4,-3.6 -6.8,-6.1 -10,-7.7 -1.2,-4.6 -3.6,-7.1 -5.5,-8.5 -2.1,-1.5 -3.8,-1.8 -3.9,-1.8 -0.2,0 -0.4,0.1 -0.4,0.3 -0.1,0.2 0,0.4 0.2,0.5 5.4,2.8 6.5,6.7 6.8,8.2 -4.2,-1.7 -7.8,-2.1 -10.5,-2.1 -2.2,0 -3.5,0.3 -3.6,0.3 -0.2,0 -0.3,0.2 -0.3,0.4 0,0.2 0.2,0.3 0.4,0.4 29.8,2.9 29.8,26.7 29.8,45.9 v 1 c 0,0.2 0.2,0.4 0.4,0.4 H 59 c 0.2,0 0.4,-0.2 0.4,-0.4 v -1.1 c 0,-18.1 0,-36.8 7.9,-51.9 9,-17.2 27.1,-26.7 55.5,-29.2 0.2,0 0.4,-0.2 0.4,-0.4 0,-0.4 -0.2,-0.6 -0.4,-0.6 z"
             inkscape:connector-curvature="0"
             style="fill:#4d4d4d" /><path
             id="XMLID_80_"
             class="st0"
             d="m 96,65.1 c 0,0 -2,3.9 -0.2,7.9 1.8,4 6,5.1 6,5.1 0,0 2,-3.9 0.2,-7.9 -1.7,-4 -6,-5.1 -6,-5.1 z"
             inkscape:connector-curvature="0"
             style="fill:#4d4d4d" /><path
             id="XMLID_79_"
             class="st0"
             d="m 109.2,45.9 c 0,0 -3.1,0.1 -5,2.5 -1.9,2.5 -1.2,5.5 -1.2,5.5 0,0 3.1,-0.1 5,-2.5 2,-2.5 1.2,-5.5 1.2,-5.5 z"
             inkscape:connector-curvature="0"
             style="fill:#4d4d4d" /><path
             id="XMLID_78_"
             class="st0"
             d="m 36.5,97.5 c 0,0 -2.6,0.2 -4.2,2.4 -1.5,2.2 -0.7,4.7 -0.7,4.7 0,0 2.6,-0.2 4.2,-2.4 1.4,-2.2 0.7,-4.7 0.7,-4.7 z"
             inkscape:connector-curvature="0"
             style="fill:#4d4d4d" /><path
             id="XMLID_77_"
             class="st0"
             d="m 53.6,72.8 c 0,0 -3.4,-0.8 -6.1,1.4 -2.7,2.2 -2.7,5.7 -2.7,5.7 0,0 3.4,0.8 6.1,-1.4 2.7,-2.2 2.7,-5.7 2.7,-5.7 z"
             inkscape:connector-curvature="0"
             style="fill:#4d4d4d" /><path
             id="XMLID_76_"
             class="st0"
             d="m 8.7,83 c 0,0 3.1,3.9 8.1,3.9 5,0 8.1,-3.9 8.1,-3.9 0,0 -3.1,-3.9 -8.1,-3.9 -5,0 -8.1,3.9 -8.1,3.9 z"
             inkscape:connector-curvature="0"
             style="fill:#4d4d4d" /><path
             id="XMLID_75_"
             class="st0"
             d="m 120,40.9 c 0,0 1.7,4.6 6.4,6.1 4.7,1.5 8.8,-1.2 8.8,-1.2 0,0 -1.7,-4.6 -6.4,-6.1 -4.7,-1.5 -8.8,1.2 -8.8,1.2 z"
             inkscape:connector-curvature="0"
             style="fill:#4d4d4d" /><path
             id="XMLID_74_"
             class="st0"
             d="m 129.2,56.5 c 0,0 0.6,4.3 4.4,6.6 3.8,2.2 7.9,0.7 7.9,0.7 0,0 -0.6,-4.3 -4.4,-6.6 -3.8,-2.3 -7.9,-0.7 -7.9,-0.7 z"
             inkscape:connector-curvature="0"
             style="fill:#4d4d4d" /><path
             id="XMLID_73_"
             class="st0"
             d="m 123,25.6 c 0,0 -4.7,0.1 -7.7,3.8 -2.9,3.8 -1.8,8.4 -1.8,8.4 0,0 4.7,-0.1 7.7,-3.8 3,-3.7 1.8,-8.4 1.8,-8.4 z"
             inkscape:connector-curvature="0"
             style="fill:#4d4d4d" /><path
             id="XMLID_72_"
             class="st0"
             d="m 95,33.9 c 0,0 -4.8,-0.6 -8.2,2.8 -3.4,3.4 -3,8.2 -3,8.2 0,0 4.8,0.6 8.2,-2.8 3.5,-3.4 3,-8.2 3,-8.2 z"
             inkscape:connector-curvature="0"
             style="fill:#4d4d4d" /><path
             id="XMLID_71_"
             class="st0"
             d="m 104.2,60.6 c 0,0 -0.5,4 2.3,7 2.8,2.9 6.9,2.6 6.9,2.6 0,0 0.5,-4 -2.3,-7 -2.8,-2.9 -6.9,-2.6 -6.9,-2.6 z"
             inkscape:connector-curvature="0"
             style="fill:#4d4d4d" /><path
             id="XMLID_70_"
             class="st0"
             d="m 89.6,69.2 c 0,0 -3.1,1.3 -4,4.6 -0.9,3.3 1.1,6 1.1,6 0,0 3.1,-1.3 4,-4.6 0.9,-3.3 -1.1,-6 -1.1,-6 z"
             inkscape:connector-curvature="0"
             style="fill:#4d4d4d" /><path
             id="XMLID_69_"
             class="st0"
             d="m 83,54.7 c 0,0 -1.7,1.6 -1.5,3.9 0.2,2.3 2.1,3.6 2.1,3.6 0,0 1.7,-1.6 1.5,-3.9 C 84.9,56 83,54.7 83,54.7 Z"
             inkscape:connector-curvature="0"
             style="fill:#4d4d4d" /><path
             id="XMLID_68_"
             class="st0"
             d="m 9.3,97.3 c 0,0 3.4,1.4 6.6,-0.3 3.3,-1.7 3.9,-5.4 3.9,-5.4 0,0 -3.4,-1.4 -6.6,0.3 -3.2,1.8 -3.9,5.4 -3.9,5.4 z"
             inkscape:connector-curvature="0"
             style="fill:#4d4d4d" /><path
             id="XMLID_67_"
             class="st0"
             d="m 24.2,71.5 c 0,0 0.6,3.7 3.9,5.5 3.3,1.8 6.7,0.4 6.7,0.4 0,0 -0.6,-3.7 -3.9,-5.5 -3.2,-1.8 -6.7,-0.4 -6.7,-0.4 z"
             inkscape:connector-curvature="0"
             style="fill:#4d4d4d" /><path
             id="XMLID_66_"
             class="st0"
             d="m 121.3,47.3 c 0,0 -3,-1.1 -5.7,0.6 -2.7,1.7 -3.1,4.8 -3.1,4.8 0,0 3,1.1 5.7,-0.6 2.7,-1.7 3.1,-4.8 3.1,-4.8 z"
             inkscape:connector-curvature="0"
             style="fill:#4d4d4d" /><path
             id="XMLID_65_"
             class="st0"
             d="m 97.9,48.9 c 0,0 -1.8,1.3 -1.9,3.6 -0.1,2.3 1.6,3.8 1.6,3.8 0,0 1.8,-1.3 1.9,-3.6 0.1,-2.3 -1.6,-3.8 -1.6,-3.8 z"
             inkscape:connector-curvature="0"
             style="fill:#4d4d4d" /><path
             id="XMLID_64_"
             class="st0"
             d="m 42.8,92 c 0,0 1.3,-2.5 0.1,-5.1 -1.2,-2.6 -3.9,-3.3 -3.9,-3.3 0,0 -1.3,2.5 -0.1,5.1 1.2,2.6 3.9,3.3 3.9,3.3 z"
             inkscape:connector-curvature="0"
             style="fill:#4d4d4d" /><path
             id="XMLID_63_"
             class="st0"
             d="m 18.9,103.7 c 0,0 4.1,0.6 7.1,-2.2 3.1,-2.8 2.7,-7 2.7,-7 0,0 -4.1,-0.6 -7.1,2.2 -3.1,2.9 -2.7,7 -2.7,7 z"
             inkscape:connector-curvature="0"
             style="fill:#4d4d4d" /><path
             id="XMLID_62_"
             class="st0"
             d="m 40.3,63.8 c 0,0 -3.3,2.4 -3.5,6.5 -0.2,4.1 2.9,6.8 2.9,6.8 0,0 3.3,-2.4 3.5,-6.5 0.2,-4.1 -2.9,-6.8 -2.9,-6.8 z"
             inkscape:connector-curvature="0"
             style="fill:#4d4d4d" /><path
             id="XMLID_61_"
             class="st0"
             d="m 51.8,42.7 c 0,0 -1.4,4.2 1,8 2.4,3.8 6.8,4.2 6.8,4.2 0,0 1.4,-4.2 -1,-8 -2.4,-3.8 -6.8,-4.2 -6.8,-4.2 z"
             inkscape:connector-curvature="0"
             style="fill:#4d4d4d" /><path
             id="XMLID_60_"
             class="st0"
             d="m 69.3,21.2 c 0,0 -3,3.4 -2.2,8 0.8,4.6 4.8,6.7 4.8,6.7 0,0 3,-3.4 2.2,-8 -0.8,-4.6 -4.8,-6.7 -4.8,-6.7 z"
             inkscape:connector-curvature="0"
             style="fill:#4d4d4d" /><path
             id="XMLID_59_"
             class="st0"
             d="m 75.1,44.2 c 0,0 -2.9,2.2 -3,5.9 -0.1,3.7 2.7,6 2.7,6 0,0 2.9,-2.2 3,-5.9 0.1,-3.7 -2.7,-6 -2.7,-6 z"
             inkscape:connector-curvature="0"
             style="fill:#4d4d4d" /><path
             id="XMLID_58_"
             class="st0"
             d="m 117,59.2 c 0,0 0,4.3 3.3,7 3.4,2.7 7.6,1.8 7.6,1.8 0,0 0,-4.3 -3.3,-7 -3.3,-2.7 -7.6,-1.8 -7.6,-1.8 z"
             inkscape:connector-curvature="0"
             style="fill:#4d4d4d" /><path
             id="XMLID_57_"
             class="st0"
             d="m 108.1,29.1 c 0,0 -3.8,0.9 -5.4,4.4 -1.7,3.5 0,7 0,7 0,0 3.8,-0.9 5.4,-4.4 1.7,-3.5 0,-7 0,-7 z"
             inkscape:connector-curvature="0"
             style="fill:#4d4d4d" /><path
             id="XMLID_56_"
             class="st0"
             d="m 48.9,56.4 c 0,0 -0.7,3.8 1.9,6.8 2.6,3 6.5,2.8 6.5,2.8 0,0 0.7,-3.8 -1.9,-6.8 -2.6,-3 -6.5,-2.8 -6.5,-2.8 z"
             inkscape:connector-curvature="0"
             style="fill:#4d4d4d" /><path
             id="XMLID_55_"
             class="st0"
             d="m 83.7,14.9 c 0,0 -4.2,1.9 -5.4,6.4 -1.2,4.5 1.6,8.3 1.6,8.3 0,0 4.2,-1.9 5.4,-6.4 1.2,-4.5 -1.6,-8.3 -1.6,-8.3 z"
             inkscape:connector-curvature="0"
             style="fill:#4d4d4d" /><path
             id="XMLID_54_"
             class="st0"
             d="m 58.3,31 c 0,0 -1.8,4 0.1,7.9 1.9,3.9 6.2,4.9 6.2,4.9 0,0 1.8,-4 -0.1,-7.9 -2,-4 -6.2,-4.9 -6.2,-4.9 z"
             inkscape:connector-curvature="0"
             style="fill:#4d4d4d" /><path
             id="XMLID_53_"
             class="st0"
             d="m 89,29.1 c 0,0 5.3,1.5 9.8,-1.8 4.5,-3.2 4.7,-8.7 4.7,-8.7 0,0 -5.3,-1.5 -9.8,1.8 -4.5,3.3 -4.7,8.7 -4.7,8.7 z"
             inkscape:connector-curvature="0"
             style="fill:#4d4d4d" /></g></g></g><g
       id="text186"
       style="font-style:normal;font-weight:normal;font-size:38.08251953px;line-height:1.25;font-family:sans-serif;letter-spacing:0px;word-spacing:0px;fill:#4d4d4d;fill-opacity:1;stroke:none;stroke-width:0.95206302"
       transform="matrix(0.79588367,0,0,0.75754323,32.692248,31.274951)"
       aria-label="P"><path
         sodipodi:nodetypes="cccscssscccssscscc"
         inkscape:connector-curvature="0"
         id="path188"
         style="font-style:normal;font-variant:normal;font-weight:normal;font-stretch:normal;font-family:'Franklin Gothic Medium';-inkscape-font-specification:'Franklin Gothic Medium, ';fill:#4d4d4d;stroke-width:0.95206302"
         d="m 178.09617,93.96122 h -4.57436 V 68.579072 h 8.89804 c 2.9628,0 5.157,0.749997 6.58262,2.249992 1.43801,1.487599 2.15702,3.247924 2.15702,5.280975 0,2.318174 -0.77479,4.196267 -2.32437,5.634279 -1.54958,1.438011 -3.51445,2.157017 -5.89461,2.157017 h -4.84434 z m 0,-13.983425 h 3.91459 c 1.41322,0 3.29733,-0.104991 4.04113,-0.799204 0.7438,-0.694213 1.14554,-1.859878 1.14554,-3.012767 0,-1.041319 -0.35011,-1.921941 -1.04432,-2.66574 -0.68182,-0.743799 -2.75393,-1.127636 -4.55144,-1.127636 h -3.5055 z" /></g><path
       style="fill:#4d4d4d"
       inkscape:connector-curvature="0"
       id="path202"
       d="m 125.88017,83.154635 h 0.3 l 9.4,10.300003 9.2,-10.300003 h 0.3 v 19.300005 h -3.8 v -7.100002 c 0,-1.3 0.1,-3.3 0.1,-3.3 0,0 -1.1,1.7 -2,2.7 l -3.8,4.2 h -0.4 l -3.8,-4.2 c -0.9,-1 -2,-2.7 -2,-2.7 0,0 0.1,2 0.1,3.3 v 7.100002 h -3.8 V 83.154635 Z"
       class="st0" /><path
       class="st0"
       d="m 158.03809,83.254638 h 0.3 l 8.7,19.200002 h -4.1 l -0.9,-2.2 h -7.7 l -0.9,2.2 h -3.8 z m 2.6,13.8 -1.4,-3.3 c -0.6,-1.3 -1.1,-3.4 -1.1,-3.4 0,0 -0.6,2.1 -1.1,3.4 l -1.4,3.3 z"
       id="path204"
       inkscape:connector-curvature="0"
       style="fill:#4d4d4d" /><path
       style="fill:#4d4d4d"
       inkscape:connector-curvature="0"
       id="path206"
       d="m 194.75451,83.254644 h 0.3 l 8.7,19.199996 h -4.1 l -0.9,-2.2 h -7.7 l -0.9,2.2 h -3.8 z m 2.6,13.799994 -1.4,-3.3 c -0.6,-1.3 -1.1,-3.399994 -1.1,-3.399994 0,0 -0.6,2.099994 -1.1,3.399994 l -1.4,3.3 z"
       class="st0" /></g></svg>